<svg width="512" height="512" viewBox="0 0 512 512" fill="none" xmlns="http://www.w3.org/2000/svg">
  <rect width="512" height="512" rx="256" fill="#FFF8F1"/>
  <circle cx="256" cy="256" r="232" fill="#FFE4EA" stroke="#FFFFFF" stroke-width="20"/>
  <circle cx="256" cy="256" r="210" fill="url(#bg)"/>
  <path d="M142 223c-20-54-13-103 18-132 34 20 58 52 72 94" fill="#F8CFC8" stroke="#7A463D" stroke-width="10" stroke-linejoin="round"/>
  <path d="M370 223c20-54 13-103-18-132-34 20-58 52-72 94" fill="#F8CFC8" stroke="#7A463D" stroke-width="10" stroke-linejoin="round"/>
  <path d="M177 122c18 18 31 40 40 66" stroke="#D98D83" stroke-width="8" stroke-linecap="round"/>
  <path d="M335 122c-18 18-31 40-40 66" stroke="#D98D83" stroke-width="8" stroke-linecap="round"/>
  <path d="M121 290c0-91 58-159 135-159s135 68 135 159c0 83-55 137-135 137S121 373 121 290Z" fill="#FFF2E8" stroke="#7A463D" stroke-width="10"/>
  <path d="M179 276c0-23 16-41 36-41s36 18 36 41-16 41-36 41-36-18-36-41Z" fill="#3A211D"/>
  <path d="M261 276c0-23 16-41 36-41s36 18 36 41-16 41-36 41-36-18-36-41Z" fill="#3A211D"/>
  <circle cx="227" cy="260" r="9" fill="#FFFFFF"/>
  <circle cx="309" cy="260" r="9" fill="#FFFFFF"/>
  <path d="M241 324c7 7 23 7 30 0" stroke="#7A463D" stroke-width="8" stroke-linecap="round"/>
  <path d="M256 304c-13 0-22-7-22-15 0-9 10-15 22-15s22 6 22 15c0 8-9 15-22 15Z" fill="#EA7188"/>
  <path d="M204 337c-31-4-57 1-79 14" stroke="#B98278" stroke-width="7" stroke-linecap="round"/>
  <path d="M204 361c-33 4-58 14-76 30" stroke="#B98278" stroke-width="7" stroke-linecap="round"/>
  <path d="M308 337c31-4 57 1 79 14" stroke="#B98278" stroke-width="7" stroke-linecap="round"/>
  <path d="M308 361c33 4 58 14 76 30" stroke="#B98278" stroke-width="7" stroke-linecap="round"/>
  <path d="M274 139c25-30 66-35 94-13 5 38-21 75-63 89-11-24-22-50-31-76Z" fill="#F4A3B4" stroke="#FFFFFF" stroke-width="8" stroke-linejoin="round"/>
  <path d="M306 143c8 18 13 37 15 58" stroke="#C85A72" stroke-width="7" stroke-linecap="round"/>
  <path d="M124 220c-28 3-54 27-61 58" stroke="#F7AFC0" stroke-width="12" stroke-linecap="round"/>
  <path d="M110 345c-19 11-34 31-38 54" stroke="#F7AFC0" stroke-width="12" stroke-linecap="round"/>
  <path d="M393 199c30 0 55 20 66 50" stroke="#F7AFC0" stroke-width="12" stroke-linecap="round"/>
  <defs>
    <radialGradient id="bg" cx="0" cy="0" r="1" gradientUnits="userSpaceOnUse" gradientTransform="translate(236 184) rotate(78) scale(263)">
      <stop stop-color="#FFFFFF"/>
      <stop offset="0.54" stop-color="#FFD6DE"/>
      <stop offset="1" stop-color="#F8B3C2"/>
    </radialGradient>
  </defs>
</svg>
