<svg width="512" height="512" viewBox="0 0 512 512" fill="none" xmlns="http://www.w3.org/2000/svg">
  <defs>
    <radialGradient id="bg" cx="50%" cy="50%" r="50%">
      <stop offset="0%" stop-color="#FFE8EF"/>
      <stop offset="100%" stop-color="#FFB3C6"/>
    </radialGradient>
    <filter id="shadow">
      <feDropShadow dx="0" dy="6" stdDeviation="10" flood-color="#A03045" flood-opacity="0.12"/>
    </filter>
    <filter id="blur">
      <feGaussianBlur stdDeviation="6"/>
    </filter>
  </defs>

  <!-- Outer background -->
  <circle cx="256" cy="256" r="240" fill="url(#bg)" stroke="#FFFFFF" stroke-width="16" filter="url(#shadow)"/>
  
  <circle cx="256" cy="256" r="215" fill="none" stroke="#FF9EBA" stroke-width="4" opacity="0.6"/>

  <!-- Stars -->
  <path d="M230 100 Q 235 115 245 120 Q 235 125 230 140 Q 225 125 215 120 Q 225 115 230 100 Z" fill="#FFFFFF"/>
  <path d="M420 290 Q 426 302 440 306 Q 426 310 420 322 Q 414 310 400 306 Q 414 302 420 290 Z" fill="#FFFFFF"/>
  
  <!-- Hearts -->
  <path d="M100 200 A 10 10 0 0 1 120 200 A 10 10 0 0 1 140 200 Q 140 215 120 230 Q 100 215 100 200 Z" fill="#FF8CA3"/>
  
  <!-- Paws -->
  <g fill="#FF9EBA" opacity="0.7">
    <circle cx="95" cy="275" r="14"/>
    <circle cx="75" cy="255" r="8"/>
    <circle cx="95" cy="245" r="8"/>
    <circle cx="115" cy="255" r="8"/>
    
    <circle cx="415" cy="235" r="14"/>
    <circle cx="395" cy="215" r="8"/>
    <circle cx="415" cy="205" r="8"/>
    <circle cx="435" cy="215" r="8"/>
  </g>

  <!-- Left Ear -->
  <path d="M 150 230 C 120 130, 150 90, 190 110 C 220 130, 240 160, 240 190 Z" fill="#FFF6F0" stroke="#4A2511" stroke-width="12" stroke-linejoin="round"/>
  <path d="M 170 205 C 150 140, 165 120, 190 130 C 210 140, 220 165, 220 190 Z" fill="#FFB3C6"/>

  <!-- Face Base -->
  <circle cx="256" cy="290" r="130" fill="#FFF6F0" stroke="#4A2511" stroke-width="12"/>

  <!-- Right Ear (Folded overlapping) -->
  <path d="M275 160 C 270 120, 310 110, 350 140 C 370 160, 350 230, 295 215 Z" fill="#FF8CA3" stroke="#FFFFFF" stroke-width="14" stroke-linejoin="round" filter="url(#shadow)"/>
  <path d="M315 150 C 320 170, 325 190, 325 200" stroke="#E05B7A" stroke-width="8" stroke-linecap="round"/>

  <!-- Cheeks -->
  <circle cx="180" cy="320" r="22" fill="#FF8CA3" opacity="0.4" filter="url(#blur)"/>
  <circle cx="332" cy="320" r="22" fill="#FF8CA3" opacity="0.4" filter="url(#blur)"/>

  <circle cx="320" cy="315" r="3" fill="#FFFFFF" opacity="0.6"/>

  <!-- Eyes -->
  <circle cx="195" cy="285" r="32" fill="#3B1C0A"/>
  <circle cx="205" cy="272" r="10" fill="#FFFFFF"/>
  <circle cx="185" cy="295" r="4" fill="#FFFFFF"/>

  <circle cx="317" cy="285" r="32" fill="#3B1C0A"/>
  <circle cx="327" cy="272" r="10" fill="#FFFFFF"/>
  <circle cx="307" cy="295" r="4" fill="#FFFFFF"/>

  <!-- Nose -->
  <ellipse cx="256" cy="308" rx="14" ry="10" fill="#FF5E85"/>
  <ellipse cx="256" cy="305" rx="6" ry="3" fill="#FFFFFF" opacity="0.5"/>

  <!-- Mouth -->
  <path d="M236 325 Q 246 335 256 325 Q 266 335 276 325" fill="none" stroke="#4A2511" stroke-width="7" stroke-linecap="round"/>

  <!-- Whiskers -->
  <path d="M115 320 L 140 323" stroke="#4A2511" stroke-width="8" stroke-linecap="round"/>
  <path d="M125 345 L 145 337" stroke="#4A2511" stroke-width="8" stroke-linecap="round"/>
  
  <path d="M397 320 L 372 323" stroke="#4A2511" stroke-width="8" stroke-linecap="round"/>
  <path d="M387 345 L 367 337" stroke="#4A2511" stroke-width="8" stroke-linecap="round"/>
</svg>
